0
SECTION
2
HEADER
9
$INSUNITS
70
4
0
ENDSEC
0
SECTION
2
TABLES
0
TABLE
2
LTYPE
0
LTYPE
72
65
70
64
2
CONTINUOUS
3
______
73
0
40
0
0
ENDTAB
0
TABLE
2
LAYER
0
ENDTAB
0
ENDSEC
0
SECTION
2
ENTITIES
0
ARC
8
0
10
-34.2787391
20
-29.8511817
40
7
50
111.0635851
51
185
0
LINE
8
0
10
-41.252102
20
-30.4612719
11
-39.8140322
21
-46.8984844
0
ARC
8
0
10
-32.8406693
20
-46.2883942
40
7
50
185.0000004
51
275.0000004
0
LINE
8
0
10
-32.2305791
20
-53.2617571
11
-14.7971719
21
-51.7365316
0
ARC
8
0
10
-15.4072621
20
-44.7631687
40
7
50
275
51
342.9756871
0
LINE
8
0
10
-7.844973
20
-46.1091938
11
3.6947487
21
-45.099599
0
ARC
8
0
10
3.0846585
20
-38.1262361
40
7
50
275
51
342.9756871
0
LINE
8
0
10
10.6469476
20
-39.4722612
11
22.1866692
21
-38.4626664
0
ARC
8
0
10
21.576579
20
-31.4893035
40
7
50
275
51
365
0
LINE
8
0
10
28.5499419
20
-30.8792133
11
27.2650745
21
-16.193113
0
ARC
8
0
10
26.75
20
-8.25
40
7
50
280.8891011
51
360
0
LINE
8
0
10
33.75
20
-8.25
11
33.75
21
-5.25
0
LINE
8
0
10
34.75
20
-4.25
11
37.8338015
21
-4.25
0
ARC
8
0
10
45.25
20
-2.25
40
7
50
202.0243128
51
270
0
LINE
8
0
10
45.25
20
-9.25
11
55.25
21
-9.25
0
LINE
8
0
10
56.25
20
-10.25
11
56.25
21
-11.25
0
ARC
8
0
10
63.25
20
-11.25
40
7
50
180
51
270
0
LINE
8
0
10
63.25
20
-18.25
11
80.75
21
-18.25
0
ARC
8
0
10
80.75
20
-11.25
40
7
50
270
51
272.0467131
0
ARC
8
0
10
81.25
20
-11.25
40
7
50
267.9532869
51
270
0
LINE
8
0
10
81.25
20
-18.25
11
98.75
21
-18.25
0
ARC
8
0
10
98.75
20
-11.25
40
7
50
270
51
360
0
LINE
8
0
10
105.75
20
-11.25
11
105.75
21
5.25
0
ARC
8
0
10
98.75
20
5.25
40
7
50
0
51
2.0467131
0
ARC
8
0
10
98.75
20
5.75
40
7
50
357.9532869
51
360
0
LINE
8
0
10
105.75
20
5.75
11
105.75
21
22.25
0
ARC
8
0
10
98.75
20
22.25
40
7
50
0
51
2.0467131
0
ARC
8
0
10
98.75
20
22.75
40
7
50
357.9532869
51
360
0
LINE
8
0
10
105.75
20
22.75
11
105.75
21
39.25
0
ARC
8
0
10
98.75
20
39.25
40
7
50
0
51
90
0
LINE
8
0
10
98.75
20
46.25
11
81.25
21
46.25
0
ARC
8
0
10
81.25
20
39.25
40
7
50
90
51
92.0467131
0
ARC
8
0
10
80.75
20
39.25
40
7
50
87.9532869
51
90
0
LINE
8
0
10
80.75
20
46.25
11
70.75
21
46.25
0
LINE
8
0
10
69.75
20
47.25
11
69.75
21
48.25
0
ARC
8
0
10
62.75
20
48.25
40
7
50
0
51
90
0
LINE
8
0
10
62.75
20
55.25
11
52.1661985
21
55.25
0
ARC
8
0
10
44.75
20
53.25
40
7
50
22.0243128
51
90
0
LINE
8
0
10
44.75
20
60.25
11
27.25
21
60.25
0
ARC
8
0
10
27.25
20
53.25
40
7
50
90
51
180
0
LINE
8
0
10
20.25
20
53.25
11
20.25
21
50.25
0
LINE
8
0
10
19.25
20
49.25
11
9.25
21
49.25
0
ARC
8
0
10
9.25
20
42.25
40
7
50
90
51
92.0467131
0
ARC
8
0
10
8.75
20
42.25
40
7
50
87.9532869
51
90
0
LINE
8
0
10
8.75
20
49.25
11
-8.75
21
49.25
0
ARC
8
0
10
-8.75
20
42.25
40
7
50
90
51
180
0
LINE
8
0
10
-15.75
20
42.25
11
-15.75
21
28.9519404
0
ARC
8
0
10
-38.8178375
20
-46.8113287
40
1
50
184.9999976
51
185.0000004
0
ARC
8
0
10
-32.3177348
20
-52.2655624
40
1
50
274.9999976
51
275.0000004
0
ARC
8
0
10
-7.7578173
20
-47.1053885
40
1
50
94.9999976
51
162.9756871
0
ARC
8
0
10
10.7341033
20
-40.4684559
40
1
50
94.9999976
51
162.9756871
0
ARC
8
0
10
28.2612692
20
-16.1059573
40
1
50
100.8891011
51
184.9999976
0
ARC
8
0
10
34.75
20
-5.25
40
1
50
90
51
180
0
ARC
8
0
10
37.8338015
20
-5.25
40
1
50
22.0243128
51
90
0
ARC
8
0
10
55.25
20
-10.25
40
1
50
0
51
90
0
ARC
8
0
10
70.75
20
47.25
40
1
50
180
51
270
0
ARC
8
0
10
52.1661985
20
56.25
40
1
50
202.0243128
51
270
0
ARC
8
0
10
19.25
20
50.25
40
1
50
270
51
0
0
LINE
8
0
10
-15.75
20
28.9519404
11
-35.3244822
21
27.2393951
0
ARC
8
0
10
-34.8015477
20
21.2622269
40
6
50
95
51
185
0
LINE
8
0
10
-40.7787159
20
20.7392924
11
-37.031019
21
-22.0970796
0
ARC
8
0
10
-31.0538508
20
-21.5741451
40
6
50
185
51
196.9054738
0
ENDSEC
0
EOF