0
SECTION
2
HEADER
9
$INSUNITS
70
4
0
ENDSEC
0
SECTION
2
TABLES
0
TABLE
2
LTYPE
0
LTYPE
72
65
70
64
2
CONTINUOUS
3
______
73
0
40
0
0
ENDTAB
0
TABLE
2
LAYER
0
ENDTAB
0
ENDSEC
0
SECTION
2
ENTITIES
0
ARC
8
0
10
-34.2787391
20
-29.8511817
40
6
50
106.5421343
51
184.9999998
0
LINE
8
0
10
-40.2559073
20
-30.3741161
11
-38.8178375
21
-46.8113287
0
ARC
8
0
10
-32.8406693
20
-46.2883942
40
6
50
185.0000004
51
274.9999998
0
LINE
8
0
10
-32.3177349
20
-52.2655624
11
-14.8843276
21
-50.7403369
0
ARC
8
0
10
-15.4072621
20
-44.7631687
40
6
50
275
51
348.3984504
0
LINE
8
0
10
-8.6374291
20
-45.1747049
11
3.607593
21
-44.1034043
0
ARC
8
0
10
3.0846585
20
-38.1262361
40
6
50
275
51
348.3984504
0
LINE
8
0
10
9.8544915
20
-38.5377723
11
22.0995134
21
-37.4664717
0
ARC
8
0
10
21.576579
20
-31.4893035
40
6
50
274.9999998
51
4.9999998
0
LINE
8
0
10
27.5537472
20
-30.9663691
11
26.1156774
21
-14.5291565
0
ARC
8
0
10
20.1385092
20
-15.052091
40
6
50
5.0000002
51
7.6824036
0
LINE
8
0
10
26.084655
20
-14.25
11
26.75
21
-14.25
0
ARC
8
0
10
26.75
20
-8.25
40
6
50
270
51
360
0
LINE
8
0
10
32.75
20
-8.25
11
32.75
21
-4.25
0
LINE
8
0
10
33.75
20
-3.25
11
38.5417961
21
-3.25
0
ARC
8
0
10
45.25
20
-2.25
40
6
50
196.6015497
51
270
0
LINE
8
0
10
45.25
20
-8.25
11
56.25
21
-8.25
0
LINE
8
0
10
57.25
20
-9.25
11
57.25
21
-11.25
0
ARC
8
0
10
63.25
20
-11.25
40
6
50
180
51
270
0
LINE
8
0
10
63.25
20
-17.25
11
80.75
21
-17.25
0
ARC
8
0
10
80.75
20
-11.25
40
6
50
270
51
272.3880155
0
ARC
8
0
10
81.25
20
-11.25
40
6
50
267.6119845
51
270
0
LINE
8
0
10
81.25
20
-17.25
11
98.75
21
-17.25
0
ARC
8
0
10
98.75
20
-11.25
40
6
50
270
51
360
0
LINE
8
0
10
104.75
20
-11.25
11
104.75
21
5.25
0
ARC
8
0
10
98.75
20
5.25
40
6
50
0
51
2.3880155
0
ARC
8
0
10
98.75
20
5.75
40
6
50
357.6119845
51
360
0
LINE
8
0
10
104.75
20
5.75
11
104.75
21
22.25
0
ARC
8
0
10
98.75
20
22.25
40
6
50
0
51
2.3880155
0
ARC
8
0
10
98.75
20
22.75
40
6
50
357.6119845
51
360
0
LINE
8
0
10
104.75
20
22.75
11
104.75
21
39.25
0
ARC
8
0
10
98.75
20
39.25
40
6
50
0
51
90
0
LINE
8
0
10
98.75
20
45.25
11
81.25
21
45.25
0
ARC
8
0
10
81.25
20
39.25
40
6
50
90
51
92.3880155
0
ARC
8
0
10
80.75
20
39.25
40
6
50
87.6119845
51
90
0
LINE
8
0
10
80.75
20
45.25
11
69.75
21
45.25
0
LINE
8
0
10
68.75
20
46.25
11
68.75
21
48.25
0
ARC
8
0
10
62.75
20
48.25
40
6
50
0
51
90
0
LINE
8
0
10
62.75
20
54.25
11
51.4582039
21
54.25
0
ARC
8
0
10
44.75
20
53.25
40
6
50
16.6015497
51
90
0
LINE
8
0
10
44.75
20
59.25
11
27.25
21
59.25
0
ARC
8
0
10
27.25
20
53.25
40
6
50
90
51
180
0
LINE
8
0
10
21.25
20
53.25
11
21.25
21
49.25
0
LINE
8
0
10
20.25
20
48.25
11
9.25
21
48.25
0
ARC
8
0
10
9.25
20
42.25
40
6
50
90
51
92.3880155
0
ARC
8
0
10
8.75
20
42.25
40
6
50
87.6119845
51
90
0
LINE
8
0
10
8.75
20
48.25
11
-8.75
21
48.25
0
ARC
8
0
10
-8.75
20
42.25
40
6
50
90
51
180
0
LINE
8
0
10
-14.75
20
42.25
11
-14.75
21
27.4519404
0
ARC
8
0
10
-39.2597126
20
-30.2869604
40
1
50
184.9999976
51
184.9999998
0
ARC
8
0
10
-32.4048906
20
-51.2693677
40
1
50
274.9999976
51
274.9999998
0
ARC
8
0
10
-8.5502734
20
-46.1708996
40
1
50
94.9999976
51
168.3984504
0
ARC
8
0
10
9.9416472
20
-39.533967
40
1
50
94.9999976
51
168.3984504
0
ARC
8
0
10
22.0123577
20
-36.470277
40
1
50
274.9999976
51
274.9999998
0
ARC
8
0
10
26.5575525
20
-31.0535248
40
1
50
4.9999976
51
4.9999998
0
ARC
8
0
10
33.75
20
-4.25
40
1
50
90
51
180
0
ARC
8
0
10
38.5417961
20
-4.25
40
1
50
16.6015497
51
90
0
ARC
8
0
10
56.25
20
-9.25
40
1
50
0
51
90
0
ARC
8
0
10
69.75
20
46.25
40
1
50
180
51
270
0
ARC
8
0
10
51.4582039
20
55.25
40
1
50
196.6015497
51
270
0
ARC
8
0
10
20.25
20
49.25
40
1
50
270
51
0
0
LINE
8
0
10
-14.75
20
27.4519404
11
-35.3206769
21
25.6522393
0
ARC
8
0
10
-34.8848982
20
20.6712659
40
5
50
95
51
185
0
LINE
8
0
10
-39.8658717
20
20.2354871
11
-35.9870613
21
-24.099518
0
ENDSEC
0
EOF