0
SECTION
2
HEADER
9
$INSUNITS
70
4
0
ENDSEC
0
SECTION
2
TABLES
0
TABLE
2
LTYPE
0
LTYPE
72
65
70
64
2
CONTINUOUS
3
______
73
0
40
0
0
ENDTAB
0
TABLE
2
LAYER
0
ENDTAB
0
ENDSEC
0
SECTION
2
ENTITIES
0
LINE
8
0
10
-31.7334544
20
56.314642
11
-40.9115783
21
-30.7128848
0
ARC
8
0
10
-37.9281239
20
-31.0275268
40
3
50
173.9797088
51
183.0000006
0
LINE
8
0
10
-40.9240125
20
-31.1845347
11
-39.4193537
21
-59.8951338
0
ARC
8
0
10
-36.4234651
20
-59.7381259
40
3
50
183.0000001
51
282.3099408
0
LINE
8
0
10
-35.7838654
20
-62.6691517
11
24.6091766
21
-49.490363
0
ARC
8
0
10
23.9695769
20
-46.5593372
40
3
50
282.3099402
51
363.0000006
0
LINE
8
0
10
26.9654655
20
-46.4023293
11
26.2462678
21
-32.6792198
0
LINE
8
0
10
32.5184528
20
-25.3498112
11
102.9578094
21
-18.0841671
0
ARC
8
0
10
102.65
20
-15.1
40
3
50
275.8890903
51
355.3941748
0
LINE
8
0
10
105.6403122
20
-15.3409008
11
110.2403122
21
41.7590992
0
ARC
8
0
10
107.25
20
42
40
3
50
355.3941746
51
435.4655445
0
LINE
8
0
10
108.0028865
20
44.9039907
11
54.0028865
21
58.9039907
0
ARC
8
0
10
53.25
20
56
40
3
50
75.4655449
51
90
0
LINE
8
0
10
-28.75
20
59
11
53.25
21
59
0
ARC
8
0
10
-28.75
20
56
40
3
50
450
51
173.9797088
0
ARC
8
0
10
33.2366745
20
-32.3128678
40
7
50
95.8890882
51
183.0000026
0
LINE
8
0
10
-8.75
20
-8.25
11
8.75
21
-8.25
0
LINE
8
0
10
8.75
20
-8.25
11
8.75
21
8.25
0
LINE
8
0
10
8.75
20
8.25
11
-8.75
21
8.25
0
LINE
8
0
10
-8.75
20
8.25
11
-8.75
21
-8.25
0
LINE
8
0
10
-8.75
20
8.75
11
8.75
21
8.75
0
LINE
8
0
10
8.75
20
8.75
11
8.75
21
25.25
0
LINE
8
0
10
8.75
20
25.25
11
-8.75
21
25.25
0
LINE
8
0
10
-8.75
20
25.25
11
-8.75
21
8.75
0
LINE
8
0
10
-8.75
20
25.75
11
8.75
21
25.75
0
LINE
8
0
10
8.75
20
25.75
11
8.75
21
42.25
0
LINE
8
0
10
8.75
20
42.25
11
-8.75
21
42.25
0
LINE
8
0
10
-8.75
20
42.25
11
-8.75
21
25.75
0
LINE
8
0
10
9.25
20
-8.25
11
26.75
21
-8.25
0
LINE
8
0
10
26.75
20
-8.25
11
26.75
21
8.25
0
LINE
8
0
10
26.75
20
8.25
11
9.25
21
8.25
0
LINE
8
0
10
9.25
20
8.25
11
9.25
21
-8.25
0
LINE
8
0
10
9.25
20
8.75
11
26.75
21
8.75
0
LINE
8
0
10
26.75
20
8.75
11
26.75
21
25.25
0
LINE
8
0
10
26.75
20
25.25
11
9.25
21
25.25
0
LINE
8
0
10
9.25
20
25.25
11
9.25
21
8.75
0
LINE
8
0
10
9.25
20
25.75
11
26.75
21
25.75
0
LINE
8
0
10
26.75
20
25.75
11
26.75
21
42.25
0
LINE
8
0
10
26.75
20
42.25
11
9.25
21
42.25
0
LINE
8
0
10
9.25
20
42.25
11
9.25
21
25.75
0
LINE
8
0
10
27.25
20
2.75
11
44.75
21
2.75
0
LINE
8
0
10
44.75
20
2.75
11
44.75
21
19.25
0
LINE
8
0
10
44.75
20
19.25
11
27.25
21
19.25
0
LINE
8
0
10
27.25
20
19.25
11
27.25
21
2.75
0
LINE
8
0
10
27.25
20
19.75
11
44.75
21
19.75
0
LINE
8
0
10
44.75
20
19.75
11
44.75
21
36.25
0
LINE
8
0
10
44.75
20
36.25
11
27.25
21
36.25
0
LINE
8
0
10
27.25
20
36.25
11
27.25
21
19.75
0
LINE
8
0
10
27.25
20
36.75
11
44.75
21
36.75
0
LINE
8
0
10
44.75
20
36.75
11
44.75
21
53.25
0
LINE
8
0
10
44.75
20
53.25
11
27.25
21
53.25
0
LINE
8
0
10
27.25
20
53.25
11
27.25
21
36.75
0
LINE
8
0
10
45.25
20
-2.25
11
62.75
21
-2.25
0
LINE
8
0
10
62.75
20
-2.25
11
62.75
21
14.25
0
LINE
8
0
10
62.75
20
14.25
11
45.25
21
14.25
0
LINE
8
0
10
45.25
20
14.25
11
45.25
21
-2.25
0
LINE
8
0
10
45.25
20
14.75
11
62.75
21
14.75
0
LINE
8
0
10
62.75
20
14.75
11
62.75
21
31.25
0
LINE
8
0
10
62.75
20
31.25
11
45.25
21
31.25
0
LINE
8
0
10
45.25
20
31.25
11
45.25
21
14.75
0
LINE
8
0
10
45.25
20
31.75
11
62.75
21
31.75
0
LINE
8
0
10
62.75
20
31.75
11
62.75
21
48.25
0
LINE
8
0
10
62.75
20
48.25
11
45.25
21
48.25
0
LINE
8
0
10
45.25
20
48.25
11
45.25
21
31.75
0
LINE
8
0
10
63.25
20
-11.25
11
80.75
21
-11.25
0
LINE
8
0
10
80.75
20
-11.25
11
80.75
21
5.25
0
LINE
8
0
10
80.75
20
5.25
11
63.25
21
5.25
0
LINE
8
0
10
63.25
20
5.25
11
63.25
21
-11.25
0
LINE
8
0
10
63.25
20
5.75
11
80.75
21
5.75
0
LINE
8
0
10
80.75
20
5.75
11
80.75
21
22.25
0
LINE
8
0
10
80.75
20
22.25
11
63.25
21
22.25
0
LINE
8
0
10
63.25
20
22.25
11
63.25
21
5.75
0
LINE
8
0
10
63.25
20
22.75
11
80.75
21
22.75
0
LINE
8
0
10
80.75
20
22.75
11
80.75
21
39.25
0
LINE
8
0
10
80.75
20
39.25
11
63.25
21
39.25
0
LINE
8
0
10
63.25
20
39.25
11
63.25
21
22.75
0
LINE
8
0
10
81.25
20
-11.25
11
98.75
21
-11.25
0
LINE
8
0
10
98.75
20
-11.25
11
98.75
21
5.25
0
LINE
8
0
10
98.75
20
5.25
11
81.25
21
5.25
0
LINE
8
0
10
81.25
20
5.25
11
81.25
21
-11.25
0
LINE
8
0
10
81.25
20
5.75
11
98.75
21
5.75
0
LINE
8
0
10
98.75
20
5.75
11
98.75
21
22.25
0
LINE
8
0
10
98.75
20
22.25
11
81.25
21
22.25
0
LINE
8
0
10
81.25
20
22.25
11
81.25
21
5.75
0
LINE
8
0
10
81.25
20
22.75
11
98.75
21
22.75
0
LINE
8
0
10
98.75
20
22.75
11
98.75
21
39.25
0
LINE
8
0
10
98.75
20
39.25
11
81.25
21
39.25
0
LINE
8
0
10
81.25
20
39.25
11
81.25
21
22.75
0
LINE
8
0
10
-34.1744255
20
-50.1072215
11
-16.6984086
21
-49.1913422
0
LINE
8
0
10
-16.6984086
20
-49.1913422
11
-17.5619519
21
-32.7139549
0
LINE
8
0
10
-17.5619519
20
-32.7139549
11
-35.0379688
21
-33.6298342
0
LINE
8
0
10
-35.0379688
20
-33.6298342
11
-34.1744255
21
-50.1072215
0
LINE
8
0
10
-15.4621441
20
-44.1196906
11
2.0138728
21
-43.2038113
0
LINE
8
0
10
2.0138728
20
-43.2038113
11
1.1503295
21
-26.726424
0
LINE
8
0
10
1.1503295
20
-26.726424
11
-16.3256874
21
-27.6423033
0
LINE
8
0
10
-16.3256874
20
-27.6423033
11
-15.4621441
21
-44.1196906
0
LINE
8
0
10
3.2501372
20
-38.1321598
11
20.7261541
21
-37.2162805
0
LINE
8
0
10
20.7261541
20
-37.2162805
11
19.8626108
21
-20.7388932
0
LINE
8
0
10
19.8626108
20
-20.7388932
11
2.3865939
21
-21.6547725
0
LINE
8
0
10
2.3865939
20
-21.6547725
11
3.2501372
21
-38.1321598
0
ENDSEC
0
EOF