0
SECTION
2
HEADER
9
$INSUNITS
70
4
0
ENDSEC
0
SECTION
2
TABLES
0
TABLE
2
LTYPE
0
LTYPE
72
65
70
64
2
CONTINUOUS
3
______
73
0
40
0
0
ENDTAB
0
TABLE
2
LAYER
0
ENDTAB
0
ENDSEC
0
SECTION
2
ENTITIES
0
LINE
8
0
10
-8.75
20
-8.25
11
8.75
21
-8.25
0
LINE
8
0
10
8.75
20
-8.25
11
8.75
21
8.25
0
LINE
8
0
10
8.75
20
8.25
11
-8.75
21
8.25
0
LINE
8
0
10
-8.75
20
8.25
11
-8.75
21
-8.25
0
LINE
8
0
10
-8.75
20
8.75
11
8.75
21
8.75
0
LINE
8
0
10
8.75
20
8.75
11
8.75
21
25.25
0
LINE
8
0
10
8.75
20
25.25
11
-8.75
21
25.25
0
LINE
8
0
10
-8.75
20
25.25
11
-8.75
21
8.75
0
LINE
8
0
10
-8.75
20
25.75
11
8.75
21
25.75
0
LINE
8
0
10
8.75
20
25.75
11
8.75
21
42.25
0
LINE
8
0
10
8.75
20
42.25
11
-8.75
21
42.25
0
LINE
8
0
10
-8.75
20
42.25
11
-8.75
21
25.75
0
LINE
8
0
10
9.25
20
-8.25
11
26.75
21
-8.25
0
LINE
8
0
10
26.75
20
-8.25
11
26.75
21
8.25
0
LINE
8
0
10
26.75
20
8.25
11
9.25
21
8.25
0
LINE
8
0
10
9.25
20
8.25
11
9.25
21
-8.25
0
LINE
8
0
10
9.25
20
8.75
11
26.75
21
8.75
0
LINE
8
0
10
26.75
20
8.75
11
26.75
21
25.25
0
LINE
8
0
10
26.75
20
25.25
11
9.25
21
25.25
0
LINE
8
0
10
9.25
20
25.25
11
9.25
21
8.75
0
LINE
8
0
10
9.25
20
25.75
11
26.75
21
25.75
0
LINE
8
0
10
26.75
20
25.75
11
26.75
21
42.25
0
LINE
8
0
10
26.75
20
42.25
11
9.25
21
42.25
0
LINE
8
0
10
9.25
20
42.25
11
9.25
21
25.75
0
LINE
8
0
10
27.25
20
2.75
11
44.75
21
2.75
0
LINE
8
0
10
44.75
20
2.75
11
44.75
21
19.25
0
LINE
8
0
10
44.75
20
19.25
11
27.25
21
19.25
0
LINE
8
0
10
27.25
20
19.25
11
27.25
21
2.75
0
LINE
8
0
10
27.25
20
19.75
11
44.75
21
19.75
0
LINE
8
0
10
44.75
20
19.75
11
44.75
21
36.25
0
LINE
8
0
10
44.75
20
36.25
11
27.25
21
36.25
0
LINE
8
0
10
27.25
20
36.25
11
27.25
21
19.75
0
LINE
8
0
10
27.25
20
36.75
11
44.75
21
36.75
0
LINE
8
0
10
44.75
20
36.75
11
44.75
21
53.25
0
LINE
8
0
10
44.75
20
53.25
11
27.25
21
53.25
0
LINE
8
0
10
27.25
20
53.25
11
27.25
21
36.75
0
LINE
8
0
10
45.25
20
-2.25
11
62.75
21
-2.25
0
LINE
8
0
10
62.75
20
-2.25
11
62.75
21
14.25
0
LINE
8
0
10
62.75
20
14.25
11
45.25
21
14.25
0
LINE
8
0
10
45.25
20
14.25
11
45.25
21
-2.25
0
LINE
8
0
10
45.25
20
14.75
11
62.75
21
14.75
0
LINE
8
0
10
62.75
20
14.75
11
62.75
21
31.25
0
LINE
8
0
10
62.75
20
31.25
11
45.25
21
31.25
0
LINE
8
0
10
45.25
20
31.25
11
45.25
21
14.75
0
LINE
8
0
10
45.25
20
31.75
11
62.75
21
31.75
0
LINE
8
0
10
62.75
20
31.75
11
62.75
21
48.25
0
LINE
8
0
10
62.75
20
48.25
11
45.25
21
48.25
0
LINE
8
0
10
45.25
20
48.25
11
45.25
21
31.75
0
LINE
8
0
10
63.25
20
-11.25
11
80.75
21
-11.25
0
LINE
8
0
10
80.75
20
-11.25
11
80.75
21
5.25
0
LINE
8
0
10
80.75
20
5.25
11
63.25
21
5.25
0
LINE
8
0
10
63.25
20
5.25
11
63.25
21
-11.25
0
LINE
8
0
10
63.25
20
5.75
11
80.75
21
5.75
0
LINE
8
0
10
80.75
20
5.75
11
80.75
21
22.25
0
LINE
8
0
10
80.75
20
22.25
11
63.25
21
22.25
0
LINE
8
0
10
63.25
20
22.25
11
63.25
21
5.75
0
LINE
8
0
10
63.25
20
22.75
11
80.75
21
22.75
0
LINE
8
0
10
80.75
20
22.75
11
80.75
21
39.25
0
LINE
8
0
10
80.75
20
39.25
11
63.25
21
39.25
0
LINE
8
0
10
63.25
20
39.25
11
63.25
21
22.75
0
LINE
8
0
10
81.25
20
-11.25
11
98.75
21
-11.25
0
LINE
8
0
10
98.75
20
-11.25
11
98.75
21
5.25
0
LINE
8
0
10
98.75
20
5.25
11
81.25
21
5.25
0
LINE
8
0
10
81.25
20
5.25
11
81.25
21
-11.25
0
LINE
8
0
10
81.25
20
5.75
11
98.75
21
5.75
0
LINE
8
0
10
98.75
20
5.75
11
98.75
21
22.25
0
LINE
8
0
10
98.75
20
22.25
11
81.25
21
22.25
0
LINE
8
0
10
81.25
20
22.25
11
81.25
21
5.75
0
LINE
8
0
10
81.25
20
22.75
11
98.75
21
22.75
0
LINE
8
0
10
98.75
20
22.75
11
98.75
21
39.25
0
LINE
8
0
10
98.75
20
39.25
11
81.25
21
39.25
0
LINE
8
0
10
81.25
20
39.25
11
81.25
21
22.75
0
LINE
8
0
10
-32.8406693
20
-46.2883942
11
-15.4072621
21
-44.7631687
0
LINE
8
0
10
-15.4072621
20
-44.7631687
11
-16.8453319
21
-28.3259562
0
LINE
8
0
10
-16.8453319
20
-28.3259562
11
-34.2787391
21
-29.8511817
0
LINE
8
0
10
-34.2787391
20
-29.8511817
11
-32.8406693
21
-46.2883942
0
LINE
8
0
10
-14.3487487
20
-39.6514616
11
3.0846585
21
-38.1262361
0
LINE
8
0
10
3.0846585
20
-38.1262361
11
1.6465887
21
-21.6890236
0
LINE
8
0
10
1.6465887
20
-21.6890236
11
-15.7868185
21
-23.2142491
0
LINE
8
0
10
-15.7868185
20
-23.2142491
11
-14.3487487
21
-39.6514616
0
LINE
8
0
10
4.1431718
20
-33.014529
11
21.576579
21
-31.4893035
0
LINE
8
0
10
21.576579
20
-31.4893035
11
20.1385092
21
-15.052091
0
LINE
8
0
10
20.1385092
20
-15.052091
11
2.705102
21
-16.5773165
0
LINE
8
0
10
2.705102
20
-16.5773165
11
4.1431718
21
-33.014529
0
ENDSEC
0
EOF