0
SECTION
2
HEADER
9
$INSUNITS
70
4
0
ENDSEC
0
SECTION
2
TABLES
0
TABLE
2
LTYPE
0
LTYPE
72
65
70
64
2
CONTINUOUS
3
______
73
0
40
0
0
ENDTAB
0
TABLE
2
LAYER
0
ENDTAB
0
ENDSEC
0
SECTION
2
ENTITIES
0
LINE
8
0
10
-8.75
20
-8.25
11
8.75
21
-8.25
0
LINE
8
0
10
8.75
20
-8.25
11
8.75
21
8.25
0
LINE
8
0
10
8.75
20
8.25
11
-8.75
21
8.25
0
LINE
8
0
10
-8.75
20
8.25
11
-8.75
21
-8.25
0
LINE
8
0
10
-8.75
20
8.75
11
8.75
21
8.75
0
LINE
8
0
10
8.75
20
8.75
11
8.75
21
25.25
0
LINE
8
0
10
8.75
20
25.25
11
-8.75
21
25.25
0
LINE
8
0
10
-8.75
20
25.25
11
-8.75
21
8.75
0
LINE
8
0
10
-8.75
20
25.75
11
8.75
21
25.75
0
LINE
8
0
10
8.75
20
25.75
11
8.75
21
42.25
0
LINE
8
0
10
8.75
20
42.25
11
-8.75
21
42.25
0
LINE
8
0
10
-8.75
20
42.25
11
-8.75
21
25.75
0
LINE
8
0
10
9.25
20
-8.25
11
26.75
21
-8.25
0
LINE
8
0
10
26.75
20
-8.25
11
26.75
21
8.25
0
LINE
8
0
10
26.75
20
8.25
11
9.25
21
8.25
0
LINE
8
0
10
9.25
20
8.25
11
9.25
21
-8.25
0
LINE
8
0
10
9.25
20
8.75
11
26.75
21
8.75
0
LINE
8
0
10
26.75
20
8.75
11
26.75
21
25.25
0
LINE
8
0
10
26.75
20
25.25
11
9.25
21
25.25
0
LINE
8
0
10
9.25
20
25.25
11
9.25
21
8.75
0
LINE
8
0
10
9.25
20
25.75
11
26.75
21
25.75
0
LINE
8
0
10
26.75
20
25.75
11
26.75
21
42.25
0
LINE
8
0
10
26.75
20
42.25
11
9.25
21
42.25
0
LINE
8
0
10
9.25
20
42.25
11
9.25
21
25.75
0
LINE
8
0
10
27.25
20
2.75
11
44.75
21
2.75
0
LINE
8
0
10
44.75
20
2.75
11
44.75
21
19.25
0
LINE
8
0
10
44.75
20
19.25
11
27.25
21
19.25
0
LINE
8
0
10
27.25
20
19.25
11
27.25
21
2.75
0
LINE
8
0
10
27.25
20
19.75
11
44.75
21
19.75
0
LINE
8
0
10
44.75
20
19.75
11
44.75
21
36.25
0
LINE
8
0
10
44.75
20
36.25
11
27.25
21
36.25
0
LINE
8
0
10
27.25
20
36.25
11
27.25
21
19.75
0
LINE
8
0
10
27.25
20
36.75
11
44.75
21
36.75
0
LINE
8
0
10
44.75
20
36.75
11
44.75
21
53.25
0
LINE
8
0
10
44.75
20
53.25
11
27.25
21
53.25
0
LINE
8
0
10
27.25
20
53.25
11
27.25
21
36.75
0
LINE
8
0
10
45.25
20
-2.25
11
62.75
21
-2.25
0
LINE
8
0
10
62.75
20
-2.25
11
62.75
21
14.25
0
LINE
8
0
10
62.75
20
14.25
11
45.25
21
14.25
0
LINE
8
0
10
45.25
20
14.25
11
45.25
21
-2.25
0
LINE
8
0
10
45.25
20
14.75
11
62.75
21
14.75
0
LINE
8
0
10
62.75
20
14.75
11
62.75
21
31.25
0
LINE
8
0
10
62.75
20
31.25
11
45.25
21
31.25
0
LINE
8
0
10
45.25
20
31.25
11
45.25
21
14.75
0
LINE
8
0
10
45.25
20
31.75
11
62.75
21
31.75
0
LINE
8
0
10
62.75
20
31.75
11
62.75
21
48.25
0
LINE
8
0
10
62.75
20
48.25
11
45.25
21
48.25
0
LINE
8
0
10
45.25
20
48.25
11
45.25
21
31.75
0
LINE
8
0
10
63.25
20
-11.25
11
80.75
21
-11.25
0
LINE
8
0
10
80.75
20
-11.25
11
80.75
21
5.25
0
LINE
8
0
10
80.75
20
5.25
11
63.25
21
5.25
0
LINE
8
0
10
63.25
20
5.25
11
63.25
21
-11.25
0
LINE
8
0
10
63.25
20
5.75
11
80.75
21
5.75
0
LINE
8
0
10
80.75
20
5.75
11
80.75
21
22.25
0
LINE
8
0
10
80.75
20
22.25
11
63.25
21
22.25
0
LINE
8
0
10
63.25
20
22.25
11
63.25
21
5.75
0
LINE
8
0
10
63.25
20
22.75
11
80.75
21
22.75
0
LINE
8
0
10
80.75
20
22.75
11
80.75
21
39.25
0
LINE
8
0
10
80.75
20
39.25
11
63.25
21
39.25
0
LINE
8
0
10
63.25
20
39.25
11
63.25
21
22.75
0
LINE
8
0
10
81.25
20
-11.25
11
98.75
21
-11.25
0
LINE
8
0
10
98.75
20
-11.25
11
98.75
21
5.25
0
LINE
8
0
10
98.75
20
5.25
11
81.25
21
5.25
0
LINE
8
0
10
81.25
20
5.25
11
81.25
21
-11.25
0
LINE
8
0
10
81.25
20
5.75
11
98.75
21
5.75
0
LINE
8
0
10
98.75
20
5.75
11
98.75
21
22.25
0
LINE
8
0
10
98.75
20
22.25
11
81.25
21
22.25
0
LINE
8
0
10
81.25
20
22.25
11
81.25
21
5.75
0
LINE
8
0
10
81.25
20
22.75
11
98.75
21
22.75
0
LINE
8
0
10
98.75
20
22.75
11
98.75
21
39.25
0
LINE
8
0
10
98.75
20
39.25
11
81.25
21
39.25
0
LINE
8
0
10
81.25
20
39.25
11
81.25
21
22.75
0
LINE
8
0
10
-34.1744255
20
-50.1072215
11
-16.6984086
21
-49.1913422
0
LINE
8
0
10
-16.6984086
20
-49.1913422
11
-17.5619519
21
-32.7139549
0
LINE
8
0
10
-17.5619519
20
-32.7139549
11
-35.0379688
21
-33.6298342
0
LINE
8
0
10
-35.0379688
20
-33.6298342
11
-34.1744255
21
-50.1072215
0
LINE
8
0
10
-15.4621441
20
-44.1196906
11
2.0138728
21
-43.2038113
0
LINE
8
0
10
2.0138728
20
-43.2038113
11
1.1503295
21
-26.726424
0
LINE
8
0
10
1.1503295
20
-26.726424
11
-16.3256874
21
-27.6423033
0
LINE
8
0
10
-16.3256874
20
-27.6423033
11
-15.4621441
21
-44.1196906
0
LINE
8
0
10
3.2501372
20
-38.1321598
11
20.7261541
21
-37.2162805
0
LINE
8
0
10
20.7261541
20
-37.2162805
11
19.8626108
21
-20.7388932
0
LINE
8
0
10
19.8626108
20
-20.7388932
11
2.3865939
21
-21.6547725
0
LINE
8
0
10
2.3865939
20
-21.6547725
11
3.2501372
21
-38.1321598
0
ENDSEC
0
EOF